<mxfile host="Electron" modified="2024-09-28T00:43:26.402Z" agent="Mozilla/5.0 (Windows NT 10.0; Win64; x64) AppleWebKit/537.36 (KHTML, like Gecko) draw.io/24.1.0 Chrome/120.0.6099.109 Electron/28.1.0 Safari/537.36" etag="0mX35NopPzHl1HhjD-Dd" version="24.1.0" type="device">
  <diagram id="C5RBs43oDa-KdzZeNtuy" name="Page-1">
    <mxGraphModel dx="807" dy="1300" grid="1" gridSize="10" guides="1" tooltips="1" connect="1" arrows="1" fold="1" page="0" pageScale="1" pageWidth="827" pageHeight="1169" math="0" shadow="0">
      <root>
        <mxCell id="WIyWlLk6GJQsqaUBKTNV-0" />
        <mxCell id="WIyWlLk6GJQsqaUBKTNV-1" parent="WIyWlLk6GJQsqaUBKTNV-0" />
        <mxCell id="oCRj0_SR6MxaRT7QwwXq-19" value="Sucursales" style="swimlane;fontStyle=0;childLayout=stackLayout;horizontal=1;startSize=30;horizontalStack=0;resizeParent=1;resizeParentMax=0;resizeLast=0;collapsible=1;marginBottom=0;whiteSpace=wrap;html=1;" parent="WIyWlLk6GJQsqaUBKTNV-1" vertex="1">
          <mxGeometry x="20" y="-440" width="160" height="140" as="geometry">
            <mxRectangle x="490" y="150" width="100" height="30" as="alternateBounds" />
          </mxGeometry>
        </mxCell>
        <mxCell id="oCRj0_SR6MxaRT7QwwXq-20" value="Id (PK, AI, INT)" style="text;strokeColor=#005700;fillColor=#008a00;align=left;verticalAlign=middle;spacingLeft=4;spacingRight=4;overflow=hidden;points=[[0,0.5],[1,0.5]];portConstraint=eastwest;rotatable=0;whiteSpace=wrap;html=1;fontColor=#ffffff;" parent="oCRj0_SR6MxaRT7QwwXq-19" vertex="1">
          <mxGeometry y="30" width="160" height="30" as="geometry" />
        </mxCell>
        <mxCell id="oCRj0_SR6MxaRT7QwwXq-75" value="Barrio (TEXT 30)" style="text;strokeColor=none;fillColor=none;align=left;verticalAlign=middle;spacingLeft=4;spacingRight=4;overflow=hidden;points=[[0,0.5],[1,0.5]];portConstraint=eastwest;rotatable=0;whiteSpace=wrap;html=1;" parent="oCRj0_SR6MxaRT7QwwXq-19" vertex="1">
          <mxGeometry y="60" width="160" height="20" as="geometry" />
        </mxCell>
        <mxCell id="oCRj0_SR6MxaRT7QwwXq-22" value="Calle (TEXT 30)" style="text;strokeColor=none;fillColor=none;align=left;verticalAlign=middle;spacingLeft=4;spacingRight=4;overflow=hidden;points=[[0,0.5],[1,0.5]];portConstraint=eastwest;rotatable=0;whiteSpace=wrap;html=1;" parent="oCRj0_SR6MxaRT7QwwXq-19" vertex="1">
          <mxGeometry y="80" width="160" height="20" as="geometry" />
        </mxCell>
        <mxCell id="oCRj0_SR6MxaRT7QwwXq-36" value="Altura (INTEGER)" style="text;strokeColor=none;fillColor=none;align=left;verticalAlign=middle;spacingLeft=4;spacingRight=4;overflow=hidden;points=[[0,0.5],[1,0.5]];portConstraint=eastwest;rotatable=0;whiteSpace=wrap;html=1;" parent="oCRj0_SR6MxaRT7QwwXq-19" vertex="1">
          <mxGeometry y="100" width="160" height="20" as="geometry" />
        </mxCell>
        <mxCell id="fX1nt7aDhkJW90tP1Csm-0" value="Estado (TEXT 20)" style="text;align=left;verticalAlign=middle;spacingLeft=4;spacingRight=4;overflow=hidden;points=[[0,0.5],[1,0.5]];portConstraint=eastwest;rotatable=0;whiteSpace=wrap;html=1;" parent="oCRj0_SR6MxaRT7QwwXq-19" vertex="1">
          <mxGeometry y="120" width="160" height="20" as="geometry" />
        </mxCell>
        <mxCell id="oCRj0_SR6MxaRT7QwwXq-23" value="Personal" style="swimlane;fontStyle=0;childLayout=stackLayout;horizontal=1;startSize=20;horizontalStack=0;resizeParent=1;resizeParentMax=0;resizeLast=0;collapsible=1;marginBottom=0;whiteSpace=wrap;html=1;" parent="WIyWlLk6GJQsqaUBKTNV-1" vertex="1">
          <mxGeometry x="260" y="-440" width="170" height="160" as="geometry" />
        </mxCell>
        <mxCell id="oCRj0_SR6MxaRT7QwwXq-24" value="Dni (PK, AI, INT)" style="text;strokeColor=#C73500;fillColor=#fa6800;align=left;verticalAlign=middle;spacingLeft=4;spacingRight=4;overflow=hidden;points=[[0,0.5],[1,0.5]];portConstraint=eastwest;rotatable=0;whiteSpace=wrap;html=1;fontColor=#000000;" parent="oCRj0_SR6MxaRT7QwwXq-23" vertex="1">
          <mxGeometry y="20" width="170" height="30" as="geometry" />
        </mxCell>
        <mxCell id="oCRj0_SR6MxaRT7QwwXq-31" value="Id_sucursal (FK, INT)" style="text;strokeColor=#005700;fillColor=#008a00;align=left;verticalAlign=middle;spacingLeft=4;spacingRight=4;overflow=hidden;points=[[0,0.5],[1,0.5]];portConstraint=eastwest;rotatable=0;whiteSpace=wrap;html=1;fontColor=#ffffff;" parent="oCRj0_SR6MxaRT7QwwXq-23" vertex="1">
          <mxGeometry y="50" width="170" height="30" as="geometry" />
        </mxCell>
        <mxCell id="ikMDwLexRSfjWzrar9F2-1" value="Clave_acceso (TEXT 15)" style="text;strokeColor=none;fillColor=none;align=left;verticalAlign=middle;spacingLeft=4;spacingRight=4;overflow=hidden;points=[[0,0.5],[1,0.5]];portConstraint=eastwest;rotatable=0;whiteSpace=wrap;html=1;" parent="oCRj0_SR6MxaRT7QwwXq-23" vertex="1">
          <mxGeometry y="80" width="170" height="20" as="geometry" />
        </mxCell>
        <mxCell id="oCRj0_SR6MxaRT7QwwXq-25" value="Nombre (TEXT 30)" style="text;strokeColor=none;fillColor=none;align=left;verticalAlign=middle;spacingLeft=4;spacingRight=4;overflow=hidden;points=[[0,0.5],[1,0.5]];portConstraint=eastwest;rotatable=0;whiteSpace=wrap;html=1;" parent="oCRj0_SR6MxaRT7QwwXq-23" vertex="1">
          <mxGeometry y="100" width="170" height="20" as="geometry" />
        </mxCell>
        <mxCell id="oCRj0_SR6MxaRT7QwwXq-26" value="Apellido (TEXT 30)" style="text;strokeColor=none;fillColor=none;align=left;verticalAlign=middle;spacingLeft=4;spacingRight=4;overflow=hidden;points=[[0,0.5],[1,0.5]];portConstraint=eastwest;rotatable=0;whiteSpace=wrap;html=1;" parent="oCRj0_SR6MxaRT7QwwXq-23" vertex="1">
          <mxGeometry y="120" width="170" height="20" as="geometry" />
        </mxCell>
        <mxCell id="oCRj0_SR6MxaRT7QwwXq-34" value="Trabajo (TEXT 30)" style="text;strokeColor=none;fillColor=none;align=left;verticalAlign=middle;spacingLeft=4;spacingRight=4;overflow=hidden;points=[[0,0.5],[1,0.5]];portConstraint=eastwest;rotatable=0;whiteSpace=wrap;html=1;" parent="oCRj0_SR6MxaRT7QwwXq-23" vertex="1">
          <mxGeometry y="140" width="170" height="20" as="geometry" />
        </mxCell>
        <mxCell id="oCRj0_SR6MxaRT7QwwXq-41" value="Canchas" style="swimlane;fontStyle=0;childLayout=stackLayout;horizontal=1;startSize=30;horizontalStack=0;resizeParent=1;resizeParentMax=0;resizeLast=0;collapsible=1;marginBottom=0;whiteSpace=wrap;html=1;" parent="WIyWlLk6GJQsqaUBKTNV-1" vertex="1">
          <mxGeometry x="-220" y="-440" width="190" height="330" as="geometry">
            <mxRectangle x="-130" y="-180" width="90" height="30" as="alternateBounds" />
          </mxGeometry>
        </mxCell>
        <mxCell id="oCRj0_SR6MxaRT7QwwXq-43" value="Id (PK, AI, INT)" style="text;strokeColor=#006EAF;fillColor=#1ba1e2;align=left;verticalAlign=middle;spacingLeft=4;spacingRight=4;overflow=hidden;points=[[0,0.5],[1,0.5]];portConstraint=eastwest;rotatable=0;whiteSpace=wrap;html=1;fontColor=#ffffff;" parent="oCRj0_SR6MxaRT7QwwXq-41" vertex="1">
          <mxGeometry y="30" width="190" height="30" as="geometry" />
        </mxCell>
        <mxCell id="oCRj0_SR6MxaRT7QwwXq-42" value="Id_sucursal (FK, INT)" style="text;strokeColor=#005700;fillColor=#008a00;align=left;verticalAlign=middle;spacingLeft=4;spacingRight=4;overflow=hidden;points=[[0,0.5],[1,0.5]];portConstraint=eastwest;rotatable=0;whiteSpace=wrap;html=1;fontColor=#ffffff;" parent="oCRj0_SR6MxaRT7QwwXq-41" vertex="1">
          <mxGeometry y="60" width="190" height="30" as="geometry" />
        </mxCell>
        <mxCell id="FomaozrJq2AYYZyJt0lX-0" value="TamaÃ±o (TEXT 10)" style="text;align=left;verticalAlign=middle;spacingLeft=4;spacingRight=4;overflow=hidden;points=[[0,0.5],[1,0.5]];portConstraint=eastwest;rotatable=0;whiteSpace=wrap;html=1;" parent="oCRj0_SR6MxaRT7QwwXq-41" vertex="1">
          <mxGeometry y="90" width="190" height="30" as="geometry" />
        </mxCell>
        <mxCell id="FomaozrJq2AYYZyJt0lX-1" value="Tipo&amp;nbsp;&lt;span style=&quot;font-weight: 400;&quot;&gt;(TEXT 10)&lt;/span&gt;" style="text;align=left;verticalAlign=middle;spacingLeft=4;spacingRight=4;overflow=hidden;points=[[0,0.5],[1,0.5]];portConstraint=eastwest;rotatable=0;whiteSpace=wrap;html=1;fontStyle=1" parent="oCRj0_SR6MxaRT7QwwXq-41" vertex="1">
          <mxGeometry y="120" width="190" height="30" as="geometry" />
        </mxCell>
        <mxCell id="FomaozrJq2AYYZyJt0lX-2" value="Obstaculos (TEXT 20)" style="text;align=left;verticalAlign=middle;spacingLeft=4;spacingRight=4;overflow=hidden;points=[[0,0.5],[1,0.5]];portConstraint=eastwest;rotatable=0;whiteSpace=wrap;html=1;" parent="oCRj0_SR6MxaRT7QwwXq-41" vertex="1">
          <mxGeometry y="150" width="190" height="30" as="geometry" />
        </mxCell>
        <mxCell id="FomaozrJq2AYYZyJt0lX-3" value="Min_jugadores (INT)" style="text;align=left;verticalAlign=middle;spacingLeft=4;spacingRight=4;overflow=hidden;points=[[0,0.5],[1,0.5]];portConstraint=eastwest;rotatable=0;whiteSpace=wrap;html=1;" parent="oCRj0_SR6MxaRT7QwwXq-41" vertex="1">
          <mxGeometry y="180" width="190" height="30" as="geometry" />
        </mxCell>
        <mxCell id="gJLp5hluaDIKEeQDhNkO-0" value="Max_jugadores (INT)" style="text;align=left;verticalAlign=middle;spacingLeft=4;spacingRight=4;overflow=hidden;points=[[0,0.5],[1,0.5]];portConstraint=eastwest;rotatable=0;whiteSpace=wrap;html=1;" parent="oCRj0_SR6MxaRT7QwwXq-41" vertex="1">
          <mxGeometry y="210" width="190" height="30" as="geometry" />
        </mxCell>
        <mxCell id="FomaozrJq2AYYZyJt0lX-4" value="Terreno (TEXT 20)" style="text;align=left;verticalAlign=middle;spacingLeft=4;spacingRight=4;overflow=hidden;points=[[0,0.5],[1,0.5]];portConstraint=eastwest;rotatable=0;whiteSpace=wrap;html=1;" parent="oCRj0_SR6MxaRT7QwwXq-41" vertex="1">
          <mxGeometry y="240" width="190" height="30" as="geometry" />
        </mxCell>
        <mxCell id="FomaozrJq2AYYZyJt0lX-5" value="Medidas (TEXT 20)" style="text;align=left;verticalAlign=middle;spacingLeft=4;spacingRight=4;overflow=hidden;points=[[0,0.5],[1,0.5]];portConstraint=eastwest;rotatable=0;whiteSpace=wrap;html=1;" parent="oCRj0_SR6MxaRT7QwwXq-41" vertex="1">
          <mxGeometry y="270" width="190" height="30" as="geometry" />
        </mxCell>
        <mxCell id="yaIbFeaF43XDcxNSTly1-10" value="Estado (TEXT 20)" style="text;align=left;verticalAlign=middle;spacingLeft=4;spacingRight=4;overflow=hidden;points=[[0,0.5],[1,0.5]];portConstraint=eastwest;rotatable=0;whiteSpace=wrap;html=1;" parent="oCRj0_SR6MxaRT7QwwXq-41" vertex="1">
          <mxGeometry y="300" width="190" height="30" as="geometry" />
        </mxCell>
        <mxCell id="oCRj0_SR6MxaRT7QwwXq-45" value="Reservas" style="swimlane;fontStyle=0;childLayout=stackLayout;horizontal=1;startSize=30;horizontalStack=0;resizeParent=1;resizeParentMax=0;resizeLast=0;collapsible=1;marginBottom=0;whiteSpace=wrap;html=1;" parent="WIyWlLk6GJQsqaUBKTNV-1" vertex="1">
          <mxGeometry x="20" y="-270" width="160" height="230" as="geometry" />
        </mxCell>
        <mxCell id="oCRj0_SR6MxaRT7QwwXq-58" value="Id (PK, AI, INT)" style="text;strokeColor=#A50040;fillColor=#d80073;align=left;verticalAlign=middle;spacingLeft=4;spacingRight=4;overflow=hidden;points=[[0,0.5],[1,0.5]];portConstraint=eastwest;rotatable=0;whiteSpace=wrap;html=1;fontColor=#ffffff;" parent="oCRj0_SR6MxaRT7QwwXq-45" vertex="1">
          <mxGeometry y="30" width="160" height="30" as="geometry" />
        </mxCell>
        <mxCell id="nzAf6WhQUNZiHCyJXopU-2" value="Dni_personal&lt;span style=&quot;color: rgb(255, 255, 255);&quot;&gt;&amp;nbsp;(FK, INT)&lt;/span&gt;" style="text;strokeColor=#C73500;fillColor=#fa6800;align=left;verticalAlign=middle;spacingLeft=4;spacingRight=4;overflow=hidden;points=[[0,0.5],[1,0.5]];portConstraint=eastwest;rotatable=0;whiteSpace=wrap;html=1;fontColor=#000000;" parent="oCRj0_SR6MxaRT7QwwXq-45" vertex="1">
          <mxGeometry y="60" width="160" height="30" as="geometry" />
        </mxCell>
        <mxCell id="oCRj0_SR6MxaRT7QwwXq-56" value="Id_cancha&amp;nbsp;(FK, INT)" style="text;strokeColor=#006EAF;fillColor=#1ba1e2;align=left;verticalAlign=middle;spacingLeft=4;spacingRight=4;overflow=hidden;points=[[0,0.5],[1,0.5]];portConstraint=eastwest;rotatable=0;whiteSpace=wrap;html=1;fontColor=#ffffff;" parent="oCRj0_SR6MxaRT7QwwXq-45" vertex="1">
          <mxGeometry y="90" width="160" height="30" as="geometry" />
        </mxCell>
        <mxCell id="oCRj0_SR6MxaRT7QwwXq-47" value="Dni_cliente (FK, INT)" style="text;strokeColor=#6F0000;fillColor=#a20025;align=left;verticalAlign=middle;spacingLeft=4;spacingRight=4;overflow=hidden;points=[[0,0.5],[1,0.5]];portConstraint=eastwest;rotatable=0;whiteSpace=wrap;html=1;fontColor=#ffffff;" parent="oCRj0_SR6MxaRT7QwwXq-45" vertex="1">
          <mxGeometry y="120" width="160" height="30" as="geometry" />
        </mxCell>
        <mxCell id="ikMDwLexRSfjWzrar9F2-7" value="Fecha (TEXT 10)" style="text;align=left;verticalAlign=middle;spacingLeft=4;spacingRight=4;overflow=hidden;points=[[0,0.5],[1,0.5]];portConstraint=eastwest;rotatable=0;whiteSpace=wrap;html=1;" parent="oCRj0_SR6MxaRT7QwwXq-45" vertex="1">
          <mxGeometry y="150" width="160" height="20" as="geometry" />
        </mxCell>
        <mxCell id="ikMDwLexRSfjWzrar9F2-6" value="Hora_inicio (TEXT 5)" style="text;align=left;verticalAlign=middle;spacingLeft=4;spacingRight=4;overflow=hidden;points=[[0,0.5],[1,0.5]];portConstraint=eastwest;rotatable=0;whiteSpace=wrap;html=1;" parent="oCRj0_SR6MxaRT7QwwXq-45" vertex="1">
          <mxGeometry y="170" width="160" height="20" as="geometry" />
        </mxCell>
        <mxCell id="oCRj0_SR6MxaRT7QwwXq-46" value="Hora_fin (TEXT 5)" style="text;align=left;verticalAlign=middle;spacingLeft=4;spacingRight=4;overflow=hidden;points=[[0,0.5],[1,0.5]];portConstraint=eastwest;rotatable=0;whiteSpace=wrap;html=1;" parent="oCRj0_SR6MxaRT7QwwXq-45" vertex="1">
          <mxGeometry y="190" width="160" height="20" as="geometry" />
        </mxCell>
        <mxCell id="ikMDwLexRSfjWzrar9F2-8" value="Estado (TEXT 20)" style="text;align=left;verticalAlign=middle;spacingLeft=4;spacingRight=4;overflow=hidden;points=[[0,0.5],[1,0.5]];portConstraint=eastwest;rotatable=0;whiteSpace=wrap;html=1;" parent="oCRj0_SR6MxaRT7QwwXq-45" vertex="1">
          <mxGeometry y="210" width="160" height="20" as="geometry" />
        </mxCell>
        <mxCell id="oCRj0_SR6MxaRT7QwwXq-49" value="Clientes" style="swimlane;fontStyle=0;childLayout=stackLayout;horizontal=1;startSize=20;horizontalStack=0;resizeParent=1;resizeParentMax=0;resizeLast=0;collapsible=1;marginBottom=0;whiteSpace=wrap;html=1;" parent="WIyWlLk6GJQsqaUBKTNV-1" vertex="1">
          <mxGeometry x="-220" y="-80" width="190" height="150" as="geometry" />
        </mxCell>
        <mxCell id="oCRj0_SR6MxaRT7QwwXq-53" value="Dni (PK, AI, INT)" style="text;strokeColor=#6F0000;fillColor=#a20025;align=left;verticalAlign=middle;spacingLeft=4;spacingRight=4;overflow=hidden;points=[[0,0.5],[1,0.5]];portConstraint=eastwest;rotatable=0;whiteSpace=wrap;html=1;fontColor=#ffffff;" parent="oCRj0_SR6MxaRT7QwwXq-49" vertex="1">
          <mxGeometry y="20" width="190" height="30" as="geometry" />
        </mxCell>
        <mxCell id="oCRj0_SR6MxaRT7QwwXq-51" value="Nombre (TEXT 30)" style="text;strokeColor=none;fillColor=none;align=left;verticalAlign=middle;spacingLeft=4;spacingRight=4;overflow=hidden;points=[[0,0.5],[1,0.5]];portConstraint=eastwest;rotatable=0;whiteSpace=wrap;html=1;" parent="oCRj0_SR6MxaRT7QwwXq-49" vertex="1">
          <mxGeometry y="50" width="190" height="20" as="geometry" />
        </mxCell>
        <mxCell id="yaIbFeaF43XDcxNSTly1-11" value="Apellido (TEXT 30)" style="text;strokeColor=none;fillColor=none;align=left;verticalAlign=middle;spacingLeft=4;spacingRight=4;overflow=hidden;points=[[0,0.5],[1,0.5]];portConstraint=eastwest;rotatable=0;whiteSpace=wrap;html=1;" parent="oCRj0_SR6MxaRT7QwwXq-49" vertex="1">
          <mxGeometry y="70" width="190" height="20" as="geometry" />
        </mxCell>
        <mxCell id="FomaozrJq2AYYZyJt0lX-6" value="Edad (INT)" style="text;strokeColor=none;fillColor=none;align=left;verticalAlign=middle;spacingLeft=4;spacingRight=4;overflow=hidden;points=[[0,0.5],[1,0.5]];portConstraint=eastwest;rotatable=0;whiteSpace=wrap;html=1;" parent="oCRj0_SR6MxaRT7QwwXq-49" vertex="1">
          <mxGeometry y="90" width="190" height="20" as="geometry" />
        </mxCell>
        <mxCell id="oCRj0_SR6MxaRT7QwwXq-54" value="Email (TEXT 50)" style="text;strokeColor=none;fillColor=none;align=left;verticalAlign=middle;spacingLeft=4;spacingRight=4;overflow=hidden;points=[[0,0.5],[1,0.5]];portConstraint=eastwest;rotatable=0;whiteSpace=wrap;html=1;" parent="oCRj0_SR6MxaRT7QwwXq-49" vertex="1">
          <mxGeometry y="110" width="190" height="20" as="geometry" />
        </mxCell>
        <mxCell id="oCRj0_SR6MxaRT7QwwXq-55" value="Telefono (INT 13)" style="text;strokeColor=none;fillColor=none;align=left;verticalAlign=middle;spacingLeft=4;spacingRight=4;overflow=hidden;points=[[0,0.5],[1,0.5]];portConstraint=eastwest;rotatable=0;whiteSpace=wrap;html=1;" parent="oCRj0_SR6MxaRT7QwwXq-49" vertex="1">
          <mxGeometry y="130" width="190" height="20" as="geometry" />
        </mxCell>
        <mxCell id="ikMDwLexRSfjWzrar9F2-11" style="edgeStyle=orthogonalEdgeStyle;rounded=0;orthogonalLoop=1;jettySize=auto;html=1;strokeWidth=4;endSize=4;fillColor=#1ba1e2;strokeColor=#006EAF;startArrow=classic;startFill=1;endArrow=none;endFill=0;startSize=4;" parent="WIyWlLk6GJQsqaUBKTNV-1" source="oCRj0_SR6MxaRT7QwwXq-56" target="oCRj0_SR6MxaRT7QwwXq-43" edge="1">
          <mxGeometry relative="1" as="geometry">
            <Array as="points">
              <mxPoint x="-10" y="-165" />
              <mxPoint x="-10" y="-395" />
            </Array>
          </mxGeometry>
        </mxCell>
        <mxCell id="ikMDwLexRSfjWzrar9F2-13" style="edgeStyle=orthogonalEdgeStyle;rounded=0;orthogonalLoop=1;jettySize=auto;html=1;fillColor=#e51400;strokeColor=#B20000;strokeWidth=4;endSize=4;startSize=4;startArrow=classic;startFill=1;endArrow=none;endFill=0;" parent="WIyWlLk6GJQsqaUBKTNV-1" source="oCRj0_SR6MxaRT7QwwXq-47" target="oCRj0_SR6MxaRT7QwwXq-53" edge="1">
          <mxGeometry relative="1" as="geometry">
            <Array as="points">
              <mxPoint x="-10" y="-135" />
              <mxPoint x="-10" y="-45" />
            </Array>
          </mxGeometry>
        </mxCell>
        <mxCell id="fenwEDM-oywygxtWKh-z-0" style="edgeStyle=orthogonalEdgeStyle;rounded=0;orthogonalLoop=1;jettySize=auto;html=1;strokeWidth=4;endSize=4;fillColor=#60a917;strokeColor=#2D7600;" parent="WIyWlLk6GJQsqaUBKTNV-1" source="oCRj0_SR6MxaRT7QwwXq-31" target="oCRj0_SR6MxaRT7QwwXq-20" edge="1">
          <mxGeometry relative="1" as="geometry">
            <Array as="points">
              <mxPoint x="200" y="-375" />
              <mxPoint x="200" y="-395" />
            </Array>
          </mxGeometry>
        </mxCell>
        <mxCell id="ikMDwLexRSfjWzrar9F2-9" style="edgeStyle=orthogonalEdgeStyle;rounded=0;orthogonalLoop=1;jettySize=auto;html=1;strokeWidth=4;endSize=4;fillColor=#fa6800;strokeColor=#C73500;endArrow=none;endFill=0;startArrow=classic;startFill=1;startSize=4;" parent="WIyWlLk6GJQsqaUBKTNV-1" source="nzAf6WhQUNZiHCyJXopU-2" target="oCRj0_SR6MxaRT7QwwXq-24" edge="1">
          <mxGeometry relative="1" as="geometry">
            <Array as="points">
              <mxPoint x="230" y="-190" />
              <mxPoint x="230" y="-405" />
            </Array>
          </mxGeometry>
        </mxCell>
        <mxCell id="yaIbFeaF43XDcxNSTly1-0" value="Pagos" style="swimlane;fontStyle=0;childLayout=stackLayout;horizontal=1;startSize=30;horizontalStack=0;resizeParent=1;resizeParentMax=0;resizeLast=0;collapsible=1;marginBottom=0;whiteSpace=wrap;html=1;" parent="WIyWlLk6GJQsqaUBKTNV-1" vertex="1">
          <mxGeometry x="260" y="-240" width="170" height="210" as="geometry" />
        </mxCell>
        <mxCell id="yaIbFeaF43XDcxNSTly1-1" value="&lt;font color=&quot;#ffffff&quot;&gt;Id (PK, AI, INT)&lt;/font&gt;" style="text;align=left;verticalAlign=middle;spacingLeft=4;spacingRight=4;overflow=hidden;points=[[0,0.5],[1,0.5]];portConstraint=eastwest;rotatable=0;whiteSpace=wrap;html=1;" parent="yaIbFeaF43XDcxNSTly1-0" vertex="1">
          <mxGeometry y="30" width="170" height="30" as="geometry" />
        </mxCell>
        <mxCell id="yaIbFeaF43XDcxNSTly1-2" value="Id_reserva (INT)" style="text;strokeColor=#A50040;fillColor=#d80073;align=left;verticalAlign=middle;spacingLeft=4;spacingRight=4;overflow=hidden;points=[[0,0.5],[1,0.5]];portConstraint=eastwest;rotatable=0;whiteSpace=wrap;html=1;fontColor=#ffffff;" parent="yaIbFeaF43XDcxNSTly1-0" vertex="1">
          <mxGeometry y="60" width="170" height="30" as="geometry" />
        </mxCell>
        <mxCell id="yaIbFeaF43XDcxNSTly1-3" value="Monto (DECIMAL 10, 2)" style="text;strokeColor=none;fillColor=none;align=left;verticalAlign=middle;spacingLeft=4;spacingRight=4;overflow=hidden;points=[[0,0.5],[1,0.5]];portConstraint=eastwest;rotatable=0;whiteSpace=wrap;html=1;" parent="yaIbFeaF43XDcxNSTly1-0" vertex="1">
          <mxGeometry y="90" width="170" height="30" as="geometry" />
        </mxCell>
        <mxCell id="yaIbFeaF43XDcxNSTly1-5" value="Metodo (TEXT 30)" style="text;strokeColor=none;fillColor=none;align=left;verticalAlign=middle;spacingLeft=4;spacingRight=4;overflow=hidden;points=[[0,0.5],[1,0.5]];portConstraint=eastwest;rotatable=0;whiteSpace=wrap;html=1;" parent="yaIbFeaF43XDcxNSTly1-0" vertex="1">
          <mxGeometry y="120" width="170" height="30" as="geometry" />
        </mxCell>
        <mxCell id="yaIbFeaF43XDcxNSTly1-6" value="Fecha_creacion (TEXT 10)" style="text;strokeColor=none;fillColor=none;align=left;verticalAlign=middle;spacingLeft=4;spacingRight=4;overflow=hidden;points=[[0,0.5],[1,0.5]];portConstraint=eastwest;rotatable=0;whiteSpace=wrap;html=1;" parent="yaIbFeaF43XDcxNSTly1-0" vertex="1">
          <mxGeometry y="150" width="170" height="30" as="geometry" />
        </mxCell>
        <mxCell id="yaIbFeaF43XDcxNSTly1-7" value="Estado (TEXT 20)" style="text;align=left;verticalAlign=middle;spacingLeft=4;spacingRight=4;overflow=hidden;points=[[0,0.5],[1,0.5]];portConstraint=eastwest;rotatable=0;whiteSpace=wrap;html=1;" parent="yaIbFeaF43XDcxNSTly1-0" vertex="1">
          <mxGeometry y="180" width="170" height="30" as="geometry" />
        </mxCell>
        <mxCell id="yaIbFeaF43XDcxNSTly1-4" style="edgeStyle=orthogonalEdgeStyle;rounded=0;orthogonalLoop=1;jettySize=auto;html=1;fillColor=#d80073;strokeColor=#A50040;strokeWidth=4;endSize=4;startArrow=classic;startFill=1;startSize=4;endArrow=none;endFill=0;exitX=1;exitY=0.5;exitDx=0;exitDy=0;" parent="WIyWlLk6GJQsqaUBKTNV-1" source="oCRj0_SR6MxaRT7QwwXq-58" target="yaIbFeaF43XDcxNSTly1-2" edge="1">
          <mxGeometry relative="1" as="geometry">
            <Array as="points">
              <mxPoint x="210" y="-225" />
              <mxPoint x="210" y="-165" />
            </Array>
          </mxGeometry>
        </mxCell>
        <mxCell id="yaIbFeaF43XDcxNSTly1-12" style="edgeStyle=orthogonalEdgeStyle;rounded=0;orthogonalLoop=1;jettySize=auto;html=1;strokeWidth=4;fillColor=#60a917;strokeColor=#2D7600;endSize=4;" parent="WIyWlLk6GJQsqaUBKTNV-1" source="oCRj0_SR6MxaRT7QwwXq-20" target="oCRj0_SR6MxaRT7QwwXq-42" edge="1">
          <mxGeometry relative="1" as="geometry">
            <Array as="points">
              <mxPoint x="10" y="-395" />
              <mxPoint x="10" y="-365" />
            </Array>
          </mxGeometry>
        </mxCell>
      </root>
    </mxGraphModel>
  </diagram>
</mxfile>
